<svg aria-hidden="true" style="position: absolute; width: 0; height: 0; overflow: hidden;" version="1.1" xmlns="http://www.w3.org/2000/svg" xmlns:xlink="http://www.w3.org/1999/xlink">
<defs>
<symbol id="icon-x" viewBox="0 0 32 32">
<path d="M24.943 8.943c0.521-0.521 0.521-1.365 0-1.886s-1.365-0.521-1.886 0l-7.057 7.057-7.057-7.057c-0.521-0.521-1.365-0.521-1.886 0s-0.521 1.365 0 1.886l7.057 7.057-7.057 7.057c-0.521 0.521-0.521 1.365 0 1.886s1.365 0.521 1.886 0l7.057-7.057 7.057 7.057c0.521 0.521 1.365 0.521 1.886 0s0.521-1.365 0-1.886l-7.057-7.057 7.057-7.057z"></path>
</symbol>
<symbol id="icon-upload" viewBox="0 0 32 32">
<path d="M4 18.4c0.884 0 1.6 0.716 1.6 1.6v5.333c0 0.283 0.112 0.554 0.312 0.754s0.471 0.313 0.754 0.313h18.667c0.283 0 0.554-0.112 0.754-0.313s0.312-0.471 0.312-0.754v-5.333c0-0.884 0.716-1.6 1.6-1.6s1.6 0.716 1.6 1.6v5.333c0 1.132-0.45 2.217-1.25 3.017s-1.886 1.25-3.017 1.25h-18.667c-1.132 0-2.217-0.45-3.017-1.25s-1.25-1.885-1.25-3.017v-5.333c0-0.884 0.716-1.6 1.6-1.6z"></path>
<path d="M15.388 2.521c-0.189 0.078-0.366 0.194-0.519 0.347l-6.667 6.667c-0.625 0.625-0.625 1.638 0 2.263s1.638 0.625 2.263 0l3.935-3.935v12.137c0 0.884 0.716 1.6 1.6 1.6s1.6-0.716 1.6-1.6v-12.137l3.935 3.935c0.625 0.625 1.638 0.625 2.263 0s0.625-1.638 0-2.263l-6.667-6.667zM17.128 2.865c-0.289-0.288-0.688-0.465-1.128-0.465-0.217 0-0.424 0.043-0.612 0.121z"></path>
</symbol>
<symbol id="icon-Group-12" viewBox="0 0 32 32">
<path fill="#fff" style="fill: var(--color1, #fff); stroke: var(--color2, #9be1a0)" stroke="#9be1a0" stroke-linejoin="miter" stroke-linecap="butt" stroke-miterlimit="4" stroke-width="2.4" d="M30.8 16c0 8.174-6.626 14.8-14.8 14.8s-14.8-6.626-14.8-14.8c0-8.174 6.626-14.8 14.8-14.8s14.8 6.626 14.8 14.8z"></path>
<path fill="#9be1a0" style="fill: var(--color2, #9be1a0)" d="M22.856 16c0 3.787-3.070 6.857-6.857 6.857s-6.857-3.070-6.857-6.857c0-3.787 3.070-6.857 6.857-6.857s6.857 3.070 6.857 6.857z"></path>
</symbol>
<symbol id="icon-Group-11" viewBox="0 0 32 32">
<path fill="#fff" style="fill: var(--color1, #fff); stroke: var(--color2, #9be1a0)" stroke="#9be1a0" stroke-linejoin="miter" stroke-linecap="butt" stroke-miterlimit="4" stroke-width="2.4" d="M30.8 16c0 8.174-6.626 14.8-14.8 14.8s-14.8-6.626-14.8-14.8c0-8.174 6.626-14.8 14.8-14.8s14.8 6.626 14.8 14.8z"></path>
</symbol>
<symbol id="icon-mark" viewBox="0 0 32 32">
<path fill="#9be1a0" style="fill: var(--color1, #9be1a0)" d="M13.474 18.545c0.121 1.266 0.328 2.206 0.611 2.826 0.287 0.619 0.796 0.927 1.532 0.927 0.137 0 0.261-0.021 0.383-0.047 0.125 0.025 0.248 0.047 0.386 0.047 0.733 0 1.244-0.309 1.53-0.927 0.285-0.62 0.487-1.561 0.612-2.826l0.653-9.771c0.121-1.905 0.183-3.271 0.183-4.101 0-1.129-0.295-2.010-0.886-2.643-0.593-0.632-1.372-0.948-2.337-0.948-0.052 0-0.090 0.012-0.14 0.014-0.048-0.002-0.088-0.014-0.137-0.014-0.967 0-1.745 0.316-2.337 0.948s-0.888 1.515-0.888 2.643c0 0.83 0.060 2.196 0.184 4.1l0.652 9.77zM16.025 25.87c-0.937 0-1.733 0.295-2.394 0.887s-0.992 1.309-0.992 2.153c0 0.951 0.335 1.7 1 2.244 0.668 0.544 1.447 0.816 2.338 0.816 0.906 0 1.697-0.268 2.373-0.805 0.675-0.536 1.012-1.289 1.012-2.254 0-0.843-0.323-1.561-0.969-2.153s-1.436-0.887-2.37-0.887z"></path>
</symbol>
</defs>
</svg>
